<mxfile host="Electron" modified="2023-07-09T20:43:36.525Z" agent="Mozilla/5.0 (Macintosh; Intel Mac OS X 10_15_7) AppleWebKit/537.36 (KHTML, like Gecko) draw.io/21.5.1 Chrome/112.0.5615.204 Electron/24.6.0 Safari/537.36" etag="nCLWa-hXGw6_JypQdmN_" version="21.5.1" type="device">
  <diagram name="Page-1" id="Hw6nuJ0ICvM2W8TSaAKC">
    <mxGraphModel dx="1444" dy="408" grid="1" gridSize="10" guides="1" tooltips="1" connect="1" arrows="1" fold="1" page="1" pageScale="1" pageWidth="850" pageHeight="1100" math="0" shadow="0">
      <root>
        <mxCell id="0" />
        <mxCell id="1" parent="0" />
        <mxCell id="8evPUxsnITqhEEqk2_8M-1" value="OCXO" style="rounded=0;whiteSpace=wrap;html=1;verticalAlign=top;" vertex="1" parent="1">
          <mxGeometry x="220" y="240" width="120" height="60" as="geometry" />
        </mxCell>
        <mxCell id="8evPUxsnITqhEEqk2_8M-2" value="10MHz" style="text;html=1;strokeColor=none;fillColor=none;align=right;verticalAlign=middle;whiteSpace=wrap;rounded=0;" vertex="1" parent="1">
          <mxGeometry x="280" y="255" width="60" height="30" as="geometry" />
        </mxCell>
        <mxCell id="8evPUxsnITqhEEqk2_8M-5" value="" style="group" vertex="1" connectable="0" parent="1">
          <mxGeometry x="440" y="250" width="40" height="40" as="geometry" />
        </mxCell>
        <mxCell id="8evPUxsnITqhEEqk2_8M-3" value="" style="triangle;whiteSpace=wrap;html=1;" vertex="1" parent="8evPUxsnITqhEEqk2_8M-5">
          <mxGeometry width="30" height="40" as="geometry" />
        </mxCell>
        <mxCell id="8evPUxsnITqhEEqk2_8M-4" value="" style="ellipse;whiteSpace=wrap;html=1;aspect=fixed;" vertex="1" parent="8evPUxsnITqhEEqk2_8M-5">
          <mxGeometry x="30" y="15" width="10" height="10" as="geometry" />
        </mxCell>
        <mxCell id="8evPUxsnITqhEEqk2_8M-6" value="L/C Filter" style="rounded=0;whiteSpace=wrap;html=1;" vertex="1" parent="1">
          <mxGeometry x="520" y="250" width="60" height="40" as="geometry" />
        </mxCell>
        <mxCell id="8evPUxsnITqhEEqk2_8M-7" value="" style="endArrow=none;html=1;rounded=0;exitX=1;exitY=0.5;exitDx=0;exitDy=0;entryX=0;entryY=0.5;entryDx=0;entryDy=0;" edge="1" parent="1" source="8evPUxsnITqhEEqk2_8M-4" target="8evPUxsnITqhEEqk2_8M-6">
          <mxGeometry width="50" height="50" relative="1" as="geometry">
            <mxPoint x="470" y="320" as="sourcePoint" />
            <mxPoint x="520" y="270" as="targetPoint" />
          </mxGeometry>
        </mxCell>
        <mxCell id="8evPUxsnITqhEEqk2_8M-8" value="" style="endArrow=classic;html=1;rounded=0;" edge="1" parent="1">
          <mxGeometry width="50" height="50" relative="1" as="geometry">
            <mxPoint x="580" y="270" as="sourcePoint" />
            <mxPoint x="640" y="270" as="targetPoint" />
          </mxGeometry>
        </mxCell>
        <mxCell id="8evPUxsnITqhEEqk2_8M-9" value="10MHz out" style="text;html=1;strokeColor=none;fillColor=none;align=center;verticalAlign=middle;whiteSpace=wrap;rounded=0;" vertex="1" parent="1">
          <mxGeometry x="580" y="240" width="60" height="30" as="geometry" />
        </mxCell>
        <mxCell id="8evPUxsnITqhEEqk2_8M-16" value="" style="endArrow=none;html=1;rounded=0;entryX=0;entryY=0.5;entryDx=0;entryDy=0;exitX=1;exitY=0.5;exitDx=0;exitDy=0;" edge="1" parent="1" source="8evPUxsnITqhEEqk2_8M-1" target="8evPUxsnITqhEEqk2_8M-3">
          <mxGeometry width="50" height="50" relative="1" as="geometry">
            <mxPoint x="340" y="290" as="sourcePoint" />
            <mxPoint x="420" y="290" as="targetPoint" />
          </mxGeometry>
        </mxCell>
        <mxCell id="8evPUxsnITqhEEqk2_8M-17" value="" style="endArrow=none;html=1;rounded=0;exitX=0;exitY=0.5;exitDx=0;exitDy=0;" edge="1" parent="1">
          <mxGeometry width="50" height="50" relative="1" as="geometry">
            <mxPoint x="399.99771542734584" y="359.9982139034407" as="sourcePoint" />
            <mxPoint x="500" y="270" as="targetPoint" />
            <Array as="points">
              <mxPoint x="500" y="360" />
            </Array>
          </mxGeometry>
        </mxCell>
        <mxCell id="8evPUxsnITqhEEqk2_8M-18" value="Microcontroller" style="rounded=0;whiteSpace=wrap;html=1;" vertex="1" parent="1">
          <mxGeometry x="220" y="340" width="120" height="70.26" as="geometry" />
        </mxCell>
        <mxCell id="8evPUxsnITqhEEqk2_8M-19" value="" style="edgeStyle=orthogonalEdgeStyle;rounded=0;orthogonalLoop=1;jettySize=auto;html=1;endArrow=none;endFill=0;" edge="1" parent="1" target="8evPUxsnITqhEEqk2_8M-18">
          <mxGeometry relative="1" as="geometry">
            <mxPoint x="360.0003112562255" y="360.31578947368416" as="sourcePoint" />
          </mxGeometry>
        </mxCell>
        <mxCell id="8evPUxsnITqhEEqk2_8M-20" value="GPS" style="rounded=0;whiteSpace=wrap;html=1;" vertex="1" parent="1">
          <mxGeometry x="360" y="440" width="120" height="60" as="geometry" />
        </mxCell>
        <mxCell id="8evPUxsnITqhEEqk2_8M-21" value="" style="endArrow=classic;html=1;rounded=0;entryX=1;entryY=0.5;entryDx=0;entryDy=0;" edge="1" parent="1" target="8evPUxsnITqhEEqk2_8M-20">
          <mxGeometry width="50" height="50" relative="1" as="geometry">
            <mxPoint x="640" y="470" as="sourcePoint" />
            <mxPoint x="590" y="480" as="targetPoint" />
          </mxGeometry>
        </mxCell>
        <mxCell id="8evPUxsnITqhEEqk2_8M-22" value="GPS Antenna&lt;br&gt;in" style="text;html=1;strokeColor=none;fillColor=none;align=center;verticalAlign=middle;whiteSpace=wrap;rounded=0;" vertex="1" parent="1">
          <mxGeometry x="580" y="430" width="60" height="40" as="geometry" />
        </mxCell>
        <mxCell id="8evPUxsnITqhEEqk2_8M-23" value="" style="endArrow=none;html=1;rounded=0;entryX=0;entryY=0.5;entryDx=0;entryDy=0;exitX=0.5;exitY=1;exitDx=0;exitDy=0;endFill=0;startArrow=classic;startFill=1;" edge="1" parent="1" source="8evPUxsnITqhEEqk2_8M-18" target="8evPUxsnITqhEEqk2_8M-20">
          <mxGeometry width="50" height="50" relative="1" as="geometry">
            <mxPoint x="280" y="470" as="sourcePoint" />
            <mxPoint x="300" y="490" as="targetPoint" />
            <Array as="points">
              <mxPoint x="280" y="470" />
            </Array>
          </mxGeometry>
        </mxCell>
        <mxCell id="8evPUxsnITqhEEqk2_8M-24" value="GPS&lt;br&gt;1PPS" style="text;html=1;strokeColor=none;fillColor=none;align=center;verticalAlign=middle;whiteSpace=wrap;rounded=0;" vertex="1" parent="1">
          <mxGeometry x="300" y="440" width="60" height="30" as="geometry" />
        </mxCell>
        <mxCell id="8evPUxsnITqhEEqk2_8M-25" value="" style="group;rotation=-180;" vertex="1" connectable="0" parent="1">
          <mxGeometry x="360" y="340" width="40" height="40" as="geometry" />
        </mxCell>
        <mxCell id="8evPUxsnITqhEEqk2_8M-26" value="" style="triangle;whiteSpace=wrap;html=1;rotation=-180;" vertex="1" parent="8evPUxsnITqhEEqk2_8M-25">
          <mxGeometry x="10" width="30" height="40" as="geometry" />
        </mxCell>
        <mxCell id="8evPUxsnITqhEEqk2_8M-27" value="" style="ellipse;whiteSpace=wrap;html=1;aspect=fixed;rotation=-180;" vertex="1" parent="8evPUxsnITqhEEqk2_8M-25">
          <mxGeometry y="15" width="10" height="10" as="geometry" />
        </mxCell>
        <mxCell id="8evPUxsnITqhEEqk2_8M-28" value="" style="endArrow=classic;html=1;rounded=0;exitX=0.994;exitY=0.657;exitDx=0;exitDy=0;exitPerimeter=0;" edge="1" parent="1" source="8evPUxsnITqhEEqk2_8M-18">
          <mxGeometry width="50" height="50" relative="1" as="geometry">
            <mxPoint x="320" y="440" as="sourcePoint" />
            <mxPoint x="640" y="390" as="targetPoint" />
          </mxGeometry>
        </mxCell>
        <mxCell id="8evPUxsnITqhEEqk2_8M-29" value="1PPS&lt;br&gt;out" style="text;html=1;strokeColor=none;fillColor=none;align=center;verticalAlign=middle;whiteSpace=wrap;rounded=0;" vertex="1" parent="1">
          <mxGeometry x="580" y="350.26" width="60" height="30" as="geometry" />
        </mxCell>
        <mxCell id="8evPUxsnITqhEEqk2_8M-30" value="R/C&lt;br&gt;Filter" style="rounded=0;whiteSpace=wrap;html=1;" vertex="1" parent="1">
          <mxGeometry x="-40" y="280" width="60" height="40" as="geometry" />
        </mxCell>
        <mxCell id="8evPUxsnITqhEEqk2_8M-32" value="" style="edgeStyle=orthogonalEdgeStyle;rounded=0;orthogonalLoop=1;jettySize=auto;html=1;" edge="1" parent="1" source="8evPUxsnITqhEEqk2_8M-31" target="8evPUxsnITqhEEqk2_8M-1">
          <mxGeometry relative="1" as="geometry" />
        </mxCell>
        <mxCell id="8evPUxsnITqhEEqk2_8M-31" value="OPA340" style="verticalLabelPosition=bottom;shadow=0;dashed=0;align=center;html=1;verticalAlign=top;shape=mxgraph.electrical.abstract.operational_amp_1;" vertex="1" parent="1">
          <mxGeometry x="60" y="225" width="98" height="90" as="geometry" />
        </mxCell>
        <mxCell id="8evPUxsnITqhEEqk2_8M-33" value="" style="endArrow=none;html=1;rounded=0;exitX=0;exitY=0.165;exitDx=0;exitDy=0;exitPerimeter=0;" edge="1" parent="1" source="8evPUxsnITqhEEqk2_8M-31">
          <mxGeometry width="50" height="50" relative="1" as="geometry">
            <mxPoint x="160" y="410" as="sourcePoint" />
            <mxPoint x="180" y="270" as="targetPoint" />
            <Array as="points">
              <mxPoint x="40" y="240" />
              <mxPoint x="40" y="200" />
              <mxPoint x="180" y="200" />
            </Array>
          </mxGeometry>
        </mxCell>
        <mxCell id="8evPUxsnITqhEEqk2_8M-35" value="" style="endArrow=none;html=1;rounded=0;entryX=0;entryY=0.835;entryDx=0;entryDy=0;entryPerimeter=0;exitX=1;exitY=0.5;exitDx=0;exitDy=0;" edge="1" parent="1" source="8evPUxsnITqhEEqk2_8M-30" target="8evPUxsnITqhEEqk2_8M-31">
          <mxGeometry width="50" height="50" relative="1" as="geometry">
            <mxPoint x="190" y="440" as="sourcePoint" />
            <mxPoint x="240" y="390" as="targetPoint" />
          </mxGeometry>
        </mxCell>
        <mxCell id="8evPUxsnITqhEEqk2_8M-36" value="" style="group;rotation=-180;" vertex="1" connectable="0" parent="1">
          <mxGeometry x="118" y="340.26" width="40" height="40" as="geometry" />
        </mxCell>
        <mxCell id="8evPUxsnITqhEEqk2_8M-37" value="" style="triangle;whiteSpace=wrap;html=1;rotation=-180;" vertex="1" parent="8evPUxsnITqhEEqk2_8M-36">
          <mxGeometry x="10" width="30" height="40" as="geometry" />
        </mxCell>
        <mxCell id="8evPUxsnITqhEEqk2_8M-38" value="" style="ellipse;whiteSpace=wrap;html=1;aspect=fixed;rotation=-180;" vertex="1" parent="8evPUxsnITqhEEqk2_8M-36">
          <mxGeometry y="15" width="10" height="10" as="geometry" />
        </mxCell>
        <mxCell id="8evPUxsnITqhEEqk2_8M-39" value="" style="endArrow=none;html=1;rounded=0;exitX=0;exitY=0.5;exitDx=0;exitDy=0;entryX=-0.008;entryY=0.281;entryDx=0;entryDy=0;entryPerimeter=0;" edge="1" parent="1" source="8evPUxsnITqhEEqk2_8M-37" target="8evPUxsnITqhEEqk2_8M-18">
          <mxGeometry width="50" height="50" relative="1" as="geometry">
            <mxPoint x="190" y="440" as="sourcePoint" />
            <mxPoint x="200" y="370" as="targetPoint" />
          </mxGeometry>
        </mxCell>
        <mxCell id="8evPUxsnITqhEEqk2_8M-40" value="" style="endArrow=classic;html=1;rounded=0;exitX=1;exitY=0.5;exitDx=0;exitDy=0;entryX=0;entryY=0.5;entryDx=0;entryDy=0;startArrow=none;startFill=0;endFill=1;" edge="1" parent="1" source="8evPUxsnITqhEEqk2_8M-38" target="8evPUxsnITqhEEqk2_8M-30">
          <mxGeometry width="50" height="50" relative="1" as="geometry">
            <mxPoint x="110" y="380" as="sourcePoint" />
            <mxPoint x="40" y="370" as="targetPoint" />
            <Array as="points">
              <mxPoint x="-80" y="360" />
              <mxPoint x="-80" y="300" />
            </Array>
          </mxGeometry>
        </mxCell>
        <mxCell id="8evPUxsnITqhEEqk2_8M-41" value="Serial 2 USB" style="rounded=0;whiteSpace=wrap;html=1;" vertex="1" parent="1">
          <mxGeometry x="-120" y="380" width="80" height="60" as="geometry" />
        </mxCell>
        <mxCell id="8evPUxsnITqhEEqk2_8M-46" value="" style="endArrow=none;html=1;rounded=0;entryX=0;entryY=0.75;entryDx=0;entryDy=0;" edge="1" parent="1" target="8evPUxsnITqhEEqk2_8M-20">
          <mxGeometry width="50" height="50" relative="1" as="geometry">
            <mxPoint x="160" y="420" as="sourcePoint" />
            <mxPoint x="310" y="510" as="targetPoint" />
            <Array as="points">
              <mxPoint x="200" y="420" />
              <mxPoint x="200" y="485" />
            </Array>
          </mxGeometry>
        </mxCell>
        <mxCell id="8evPUxsnITqhEEqk2_8M-47" value="" style="endArrow=none;html=1;rounded=0;entryX=-0.003;entryY=0.845;entryDx=0;entryDy=0;entryPerimeter=0;" edge="1" parent="1" target="8evPUxsnITqhEEqk2_8M-18">
          <mxGeometry width="50" height="50" relative="1" as="geometry">
            <mxPoint x="160" y="400" as="sourcePoint" />
            <mxPoint x="220" y="410" as="targetPoint" />
          </mxGeometry>
        </mxCell>
        <mxCell id="8evPUxsnITqhEEqk2_8M-48" value="" style="ellipse;whiteSpace=wrap;html=1;" vertex="1" parent="1">
          <mxGeometry x="150" y="395" width="10" height="10" as="geometry" />
        </mxCell>
        <mxCell id="8evPUxsnITqhEEqk2_8M-50" value="" style="ellipse;whiteSpace=wrap;html=1;" vertex="1" parent="1">
          <mxGeometry x="150" y="415" width="10" height="10" as="geometry" />
        </mxCell>
        <mxCell id="8evPUxsnITqhEEqk2_8M-52" value="" style="ellipse;whiteSpace=wrap;html=1;" vertex="1" parent="1">
          <mxGeometry x="130" y="405" width="10" height="10" as="geometry" />
        </mxCell>
        <mxCell id="8evPUxsnITqhEEqk2_8M-53" value="" style="endArrow=none;html=1;rounded=0;" edge="1" parent="1">
          <mxGeometry width="50" height="50" relative="1" as="geometry">
            <mxPoint x="150" y="418" as="sourcePoint" />
            <mxPoint x="140" y="412" as="targetPoint" />
          </mxGeometry>
        </mxCell>
        <mxCell id="8evPUxsnITqhEEqk2_8M-54" value="" style="endArrow=classic;html=1;rounded=0;exitX=0;exitY=0.5;exitDx=0;exitDy=0;entryX=1;entryY=0.5;entryDx=0;entryDy=0;" edge="1" parent="1" source="8evPUxsnITqhEEqk2_8M-52" target="8evPUxsnITqhEEqk2_8M-41">
          <mxGeometry width="50" height="50" relative="1" as="geometry">
            <mxPoint x="20" y="440" as="sourcePoint" />
            <mxPoint x="70" y="390" as="targetPoint" />
          </mxGeometry>
        </mxCell>
        <mxCell id="8evPUxsnITqhEEqk2_8M-55" value="VREF" style="triangle;whiteSpace=wrap;html=1;" vertex="1" parent="1">
          <mxGeometry x="-80" y="520" width="60" height="80" as="geometry" />
        </mxCell>
        <mxCell id="8evPUxsnITqhEEqk2_8M-56" value="" style="endArrow=none;html=1;rounded=0;exitX=1;exitY=0.5;exitDx=0;exitDy=0;" edge="1" parent="1" source="8evPUxsnITqhEEqk2_8M-55">
          <mxGeometry width="50" height="50" relative="1" as="geometry">
            <mxPoint x="-70" y="580" as="sourcePoint" />
            <mxPoint x="10" y="560" as="targetPoint" />
          </mxGeometry>
        </mxCell>
        <mxCell id="8evPUxsnITqhEEqk2_8M-58" value="Discrete&lt;br&gt;Voltage Regulator" style="rounded=0;whiteSpace=wrap;html=1;" vertex="1" parent="1">
          <mxGeometry x="10" y="520" width="120" height="80" as="geometry" />
        </mxCell>
        <mxCell id="8evPUxsnITqhEEqk2_8M-60" value="" style="endArrow=classic;html=1;rounded=0;exitX=1;exitY=0.5;exitDx=0;exitDy=0;" edge="1" parent="1" source="8evPUxsnITqhEEqk2_8M-58">
          <mxGeometry width="50" height="50" relative="1" as="geometry">
            <mxPoint x="130" y="570" as="sourcePoint" />
            <mxPoint x="210" y="560" as="targetPoint" />
          </mxGeometry>
        </mxCell>
        <mxCell id="8evPUxsnITqhEEqk2_8M-61" value="5V" style="text;html=1;strokeColor=none;fillColor=none;align=center;verticalAlign=bottom;whiteSpace=wrap;rounded=0;" vertex="1" parent="1">
          <mxGeometry x="130" y="530" width="60" height="30" as="geometry" />
        </mxCell>
        <mxCell id="8evPUxsnITqhEEqk2_8M-62" value="Tune" style="text;html=1;strokeColor=none;fillColor=none;align=left;verticalAlign=bottom;whiteSpace=wrap;rounded=0;" vertex="1" parent="1">
          <mxGeometry x="220" y="250" width="60" height="30" as="geometry" />
        </mxCell>
        <mxCell id="8evPUxsnITqhEEqk2_8M-63" value="PWM" style="text;html=1;strokeColor=none;fillColor=none;align=right;verticalAlign=bottom;whiteSpace=wrap;rounded=0;" vertex="1" parent="1">
          <mxGeometry x="160" y="330" width="60" height="30" as="geometry" />
        </mxCell>
      </root>
    </mxGraphModel>
  </diagram>
</mxfile>
